# xmcd CD database file
#
# Track frame offsets:
#	150
#	29895
#	70613
#	124200
#	157851
#	177379
#	202041
#
# Disc length: 3161 seconds
#
# Revision: 0
# Processed by: cddbd v1.5.2PL0 Copyright (c) Steve Scherf et al.
# Submitted via: CDex 1.70beta2
#
DISCID=610c5707
DTITLE=Horace Silver - Shoutin´ out
DYEAR=1900
DGENRE=Jazz
TTITLE0=shoutin´ out
TTITLE1=the night has a thousand eyes
TTITLE2=to beat or not to beat
TTITLE3=i´ll know
TTITLE4=how long has this been going on
TTITLE5=hank´s tune
TTITLE6=silver´s blue
EXTD=
EXTT0=
EXTT1=
EXTT2=
EXTT3=
EXTT4=
EXTT5=
EXTT6=
PLAYORDER=
